<!-- 
  SpotiPi Icon Sprite
  Minimal icon set using inline SVG symbols
  Only includes icons actually used in the app
  
  Usage: <svg class="icon"><use href="/static/icons/icons.svg#icon-name"></use></svg>
-->
<svg xmlns="http://www.w3.org/2000/svg" style="display: none;">
  <!-- Play icon -->
  <symbol id="icon-play" viewBox="0 0 24 24" fill="currentColor">
    <path d="M8 5v14l11-7z"/>
  </symbol>
  
  <!-- Pause icon -->
  <symbol id="icon-pause" viewBox="0 0 24 24" fill="currentColor">
    <path d="M6 19h4V5H6v14zm8-14v14h4V5h-4z"/>
  </symbol>
  
  <!-- Bell/Alarm icon -->
  <symbol id="icon-bell" viewBox="0 0 24 24" fill="currentColor">
    <path d="M12 22c1.1 0 2-.9 2-2h-4c0 1.1.9 2 2 2zm6-6v-5c0-3.07-1.63-5.64-4.5-6.32V4c0-.83-.67-1.5-1.5-1.5s-1.5.67-1.5 1.5v.68C7.64 5.36 6 7.92 6 11v5l-2 2v1h16v-1l-2-2z"/>
  </symbol>
  
  <!-- Moon/Sleep icon -->
  <symbol id="icon-moon" viewBox="0 0 24 24" fill="currentColor">
    <path d="M12.43 2.3c-2.38-.59-4.68-.27-6.63.64-.35.16-.41.64-.1.86C8.3 5.6 10 8.6 10 12c0 3.4-1.7 6.4-4.3 8.2-.32.22-.26.7.09.86 1.28.6 2.71.94 4.21.94 6.05 0 10.85-5.38 9.87-11.6-.61-3.92-3.59-7.16-7.44-8.1z"/>
  </symbol>
  
  <!-- Music icon -->
  <symbol id="icon-music" viewBox="0 0 24 24" fill="currentColor">
    <path d="M12 3v10.55c-.59-.34-1.27-.55-2-.55-2.21 0-4 1.79-4 4s1.79 4 4 4 4-1.79 4-4V7h4V3h-6z"/>
  </symbol>
  
  <!-- Compact disc icon -->
  <symbol id="icon-disc" viewBox="0 0 24 24" fill="currentColor">
    <path d="M12 2C6.48 2 2 6.48 2 12s4.48 10 10 10 10-4.48 10-10S17.52 2 12 2zm0 14.5c-2.49 0-4.5-2.01-4.5-4.5S9.51 7.5 12 7.5s4.5 2.01 4.5 4.5-2.01 4.5-4.5 4.5zm0-5.5c-.55 0-1 .45-1 1s.45 1 1 1 1-.45 1-1-.45-1-1-1z"/>
  </symbol>
  
  <!-- Volume up icon -->
  <symbol id="icon-volume" viewBox="0 0 24 24" fill="currentColor">
    <path d="M3 9v6h4l5 5V4L7 9H3zm13.5 3c0-1.77-1.02-3.29-2.5-4.03v8.05c1.48-.73 2.5-2.25 2.5-4.02zM14 3.23v2.06c2.89.86 5 3.54 5 6.71s-2.11 5.85-5 6.71v2.06c4.01-.91 7-4.49 7-8.77s-2.99-7.86-7-8.77z"/>
  </symbol>
  
  <!-- Shuffle icon -->
  <symbol id="icon-shuffle" viewBox="0 0 24 24" fill="currentColor">
    <path d="M10.59 9.17L5.41 4 4 5.41l5.17 5.17 1.42-1.41zM14.5 4l2.04 2.04L4 18.59 5.41 20 17.96 7.46 20 9.5V4h-5.5zm.33 9.41l-1.41 1.41 3.13 3.13L14.5 20H20v-5.5l-2.04 2.04-3.13-3.13z"/>
  </symbol>
  
  <!-- Clock/Time icon -->
  <symbol id="icon-clock" viewBox="0 0 24 24" fill="currentColor">
    <path d="M11.99 2C6.47 2 2 6.48 2 12s4.47 10 9.99 10C17.52 22 22 17.52 22 12S17.52 2 11.99 2zM12 20c-4.42 0-8-3.58-8-8s3.58-8 8-8 8 3.58 8 8-3.58 8-8 8zm.5-13H11v6l5.25 3.15.75-1.23-4.5-2.67z"/>
  </symbol>
  
  <!-- Device/Speaker icon -->
  <symbol id="icon-speaker" viewBox="0 0 24 24" fill="currentColor">
    <path d="M17 2H7c-1.1 0-2 .9-2 2v16c0 1.1.9 2 2 2h10c1.1 0 2-.9 2-2V4c0-1.1-.9-2-2-2zm-5 2c1.1 0 2 .9 2 2s-.9 2-2 2-2-.9-2-2 .9-2 2-2zm0 16c-2.76 0-5-2.24-5-5s2.24-5 5-5 5 2.24 5 5-2.24 5-5 5zm0-8c-1.66 0-3 1.34-3 3s1.34 3 3 3 3-1.34 3-3-1.34-3-3-3z"/>
  </symbol>
  
  <!-- Chevron down icon -->
  <symbol id="icon-chevron-down" viewBox="0 0 24 24" fill="currentColor">
    <path d="M7.41 8.59L12 13.17l4.59-4.58L18 10l-6 6-6-6 1.41-1.41z"/>
  </symbol>
  
  <!-- Check icon -->
  <symbol id="icon-check" viewBox="0 0 24 24" fill="currentColor">
    <path d="M9 16.17L4.83 12l-1.42 1.41L9 19 21 7l-1.41-1.41z"/>
  </symbol>
  
  <!-- Warning icon -->
  <symbol id="icon-warning" viewBox="0 0 24 24" fill="currentColor">
    <path d="M1 21h22L12 2 1 21zm12-3h-2v-2h2v2zm0-4h-2v-4h2v4z"/>
  </symbol>
  
  <!-- Info icon -->
  <symbol id="icon-info" viewBox="0 0 24 24" fill="currentColor">
    <path d="M12 2C6.48 2 2 6.48 2 12s4.48 10 10 10 10-4.48 10-10S17.52 2 12 2zm1 15h-2v-6h2v6zm0-8h-2V7h2v2z"/>
  </symbol>
</svg>
